<svg width="18" height="34" viewBox="0 0 18 34" fill="none" xmlns="http://www.w3.org/2000/svg">
<path fill-rule="evenodd" clip-rule="evenodd" d="M0.614965 1.11498C0.498556 1.23109 0.4062 1.36903 0.343184 1.52089C0.280169 1.67276 0.24773 1.83556 0.24773 1.99998C0.24773 2.16439 0.280169 2.3272 0.343184 2.47906C0.4062 2.63092 0.498556 2.76886 0.614965 2.88498L14.7325 17L0.614965 31.115C0.380249 31.3497 0.248386 31.668 0.248386 32C0.248386 32.3319 0.380249 32.6503 0.614965 32.885C0.849682 33.1197 1.16803 33.2516 1.49997 33.2516C1.8319 33.2516 2.15025 33.1197 2.38496 32.885L17.385 17.885C17.5014 17.7689 17.5937 17.6309 17.6567 17.4791C17.7198 17.3272 17.7522 17.1644 17.7522 17C17.7522 16.8356 17.7198 16.6728 17.6567 16.5209C17.5937 16.369 17.5014 16.2311 17.385 16.115L2.38496 1.11498C2.26885 0.998568 2.13091 0.906211 1.97905 0.843195C1.82718 0.780179 1.66438 0.747742 1.49997 0.747742C1.33555 0.747742 1.17274 0.780179 1.02088 0.843195C0.869019 0.906211 0.731079 0.998568 0.614965 1.11498Z" fill="#1D2527"/>
</svg>
