<svg width="17" height="24" viewBox="0 0 17 24" fill="none" xmlns="http://www.w3.org/2000/svg">
<path d="M10.4534 1.51687H10.4575H10.4534ZM10.4534 1.51687L8.76105 10.4085L14.8919 10.4291L6.54667 22.4831L8.23905 12.7009L2.10855 12.6795L10.4534 1.51687ZM10.4545 0.0168926C10.414 0.0168926 10.3736 0.0183691 10.3338 0.0213457C10.0691 0.0427441 9.89355 0.131244 9.68545 0.271119C9.56826 0.349246 9.46261 0.443412 9.37157 0.550869C9.34423 0.583121 9.31844 0.616659 9.2943 0.651369L0.889424 11.775C0.557549 12.2299 0.508799 12.8303 0.763799 13.332C1.01842 13.8338 1.5333 14.1518 2.09767 14.1559L6.42742 14.1874L5.06617 22.2075C4.9368 22.8968 5.3043 23.5838 5.95117 23.8605C6.13916 23.9413 6.34166 23.9829 6.54628 23.9828C7.01765 23.9828 7.40502 23.7623 7.69567 23.364L16.111 11.31C16.4429 10.8551 16.4913 10.254 16.2367 9.75297C15.982 9.25122 15.4672 8.9332 14.9028 8.9291L10.573 8.9216L11.9197 1.86972C11.9482 1.75427 11.9626 1.63577 11.9624 1.51685C11.9624 0.705346 11.3163 0.0438457 10.5078 0.0175957C10.4898 0.0168457 10.4722 0.0168457 10.4546 0.0168457L10.4545 0.0168926Z" fill="#1D2527"/>
</svg>
