<svg width="18" height="34" viewBox="0 0 18 34" fill="none" xmlns="http://www.w3.org/2000/svg">
<path fill-rule="evenodd" clip-rule="evenodd" d="M17.385 1.11498C17.5014 1.23109 17.5937 1.36903 17.6568 1.52089C17.7198 1.67276 17.7522 1.83556 17.7522 1.99998C17.7522 2.16439 17.7198 2.3272 17.6568 2.47906C17.5937 2.63092 17.5014 2.76886 17.385 2.88498L3.26747 17L17.385 31.115C17.6197 31.3497 17.7516 31.668 17.7516 32C17.7516 32.3319 17.6197 32.6503 17.385 32.885C17.1503 33.1197 16.8319 33.2516 16.5 33.2516C16.168 33.2516 15.8497 33.1197 15.615 32.885L0.614975 17.885C0.498567 17.7689 0.40621 17.6309 0.343194 17.4791C0.280178 17.3272 0.247742 17.1644 0.247742 17C0.247742 16.8356 0.280178 16.6728 0.343194 16.5209C0.40621 16.369 0.498567 16.2311 0.614975 16.115L15.615 1.11498C15.7311 0.998568 15.869 0.906211 16.0209 0.843195C16.1728 0.780179 16.3356 0.747742 16.5 0.747742C16.6644 0.747742 16.8272 0.780179 16.9791 0.843195C17.1309 0.906211 17.2689 0.998568 17.385 1.11498Z" fill="#D2D4D9"/>
</svg>
