<svg width="21" height="19" viewBox="0 0 21 19" fill="none" xmlns="http://www.w3.org/2000/svg">
<path d="M11.7 10C12.3365 10 12.947 10.2529 13.3971 10.703C13.8472 11.1531 14.1 11.7635 14.1 12.4V14.2C14.1 16.6648 11.5944 18.4 7.50002 18.4C3.40562 18.4 0.900024 16.6648 0.900024 14.2V12.4C0.900024 11.7635 1.15288 11.1531 1.60297 10.703C2.05306 10.2529 2.6635 10 3.30002 10H11.7ZM11.7 11.2H3.30002C2.98176 11.2 2.67654 11.3265 2.4515 11.5515C2.22645 11.7765 2.10002 12.0818 2.10002 12.4V14.2C2.10002 15.8884 3.99482 17.2 7.50002 17.2C11.0052 17.2 12.9 15.8884 12.9 14.2V12.4C12.9 12.0818 12.7736 11.7765 12.5486 11.5515C12.3235 11.3265 12.0183 11.2 11.7 11.2ZM17.7 10C18.3365 10 18.947 10.2529 19.3971 10.703C19.8472 11.1531 20.1 11.7635 20.1 12.4V13C20.1 15.5068 18.2184 17.2 14.7 17.2C14.5308 17.2 14.364 17.1964 14.2032 17.188C14.4497 16.9025 14.6601 16.5877 14.8296 16.2508L14.946 15.9952H14.9928C17.6712 15.9172 18.9 14.752 18.9 13V12.4C18.9 12.0818 18.7736 11.7765 18.5486 11.5515C18.3235 11.3265 18.0183 11.2 17.7 11.2H15.0948C14.9378 10.7574 14.6956 10.3497 14.382 10H17.7ZM7.50002 0.400024C8.05158 0.400024 8.59773 0.508661 9.10729 0.71973C9.61686 0.9308 10.0799 1.24017 10.4699 1.63018C10.8599 2.02018 11.1692 2.48319 11.3803 2.99275C11.5914 3.50232 11.7 4.04847 11.7 4.60003C11.7 5.15158 11.5914 5.69773 11.3803 6.2073C11.1692 6.71686 10.8599 7.17987 10.4699 7.56987C10.0799 7.95988 9.61686 8.26925 9.10729 8.48032C8.59773 8.69139 8.05158 8.80003 7.50002 8.80003C6.38612 8.80003 5.31783 8.35753 4.53018 7.56987C3.74252 6.78222 3.30002 5.71393 3.30002 4.60003C3.30002 3.48612 3.74252 2.41783 4.53018 1.63018C5.31783 0.842523 6.38612 0.400024 7.50002 0.400024ZM15.9 2.80002C16.6957 2.80002 17.4587 3.1161 18.0213 3.6787C18.584 4.24131 18.9 5.00438 18.9 5.80002C18.9 6.59567 18.584 7.35874 18.0213 7.92135C17.4587 8.48396 16.6957 8.80003 15.9 8.80003C15.1044 8.80003 14.3413 8.48396 13.7787 7.92135C13.2161 7.35874 12.9 6.59567 12.9 5.80002C12.9 5.00438 13.2161 4.24131 13.7787 3.6787C14.3413 3.1161 15.1044 2.80002 15.9 2.80002ZM7.50002 1.60002C6.70437 1.60002 5.94131 1.9161 5.3787 2.4787C4.81609 3.04131 4.50002 3.80438 4.50002 4.60003C4.50002 5.39567 4.81609 6.15874 5.3787 6.72135C5.94131 7.28396 6.70437 7.60003 7.50002 7.60003C8.29567 7.60003 9.05873 7.28396 9.62134 6.72135C10.184 6.15874 10.5 5.39567 10.5 4.60003C10.5 3.80438 10.184 3.04131 9.62134 2.4787C9.05873 1.9161 8.29567 1.60002 7.50002 1.60002ZM15.9 4.00002C15.4226 4.00002 14.9648 4.18967 14.6272 4.52723C14.2897 4.8648 14.1 5.32264 14.1 5.80002C14.1 6.27741 14.2897 6.73525 14.6272 7.07282C14.9648 7.41038 15.4226 7.60003 15.9 7.60003C16.3774 7.60003 16.8353 7.41038 17.1728 7.07282C17.5104 6.73525 17.7 6.27741 17.7 5.80002C17.7 5.32264 17.5104 4.8648 17.1728 4.52723C16.8353 4.18967 16.3774 4.00002 15.9 4.00002Z" fill="#1D2527"/>
</svg>
