<svg width="21" height="18" viewBox="0 0 21 18" fill="none" xmlns="http://www.w3.org/2000/svg">
<path d="M4.99922 3.65202C6.36908 2.46095 8.08925 1.74787 9.90002 1.62042V3.40002C9.90002 3.55915 9.96324 3.71177 10.0758 3.82429C10.1883 3.93681 10.3409 4.00002 10.5 4.00002C10.6592 4.00002 10.8118 3.93681 10.9243 3.82429C11.0368 3.71177 11.1 3.55915 11.1 3.40002V1.62162C13.012 1.7587 14.8197 2.54532 16.2231 3.85099C17.6266 5.15666 18.5415 6.9029 18.816 8.80002H16.5C16.3409 8.80002 16.1883 8.86324 16.0758 8.97576C15.9632 9.08828 15.9 9.24089 15.9 9.40002C15.9 9.55915 15.9632 9.71177 16.0758 9.82429C16.1883 9.93681 16.3409 10 16.5 10H18.9C18.8986 11.1595 18.6628 12.3068 18.2069 13.3729C17.7509 14.439 17.0842 15.402 16.2468 16.204C16.1365 16.3144 16.0736 16.4635 16.0714 16.6195C16.0692 16.7756 16.1278 16.9263 16.2349 17.0398C16.342 17.1533 16.4892 17.2206 16.6451 17.2275C16.801 17.2343 16.9534 17.1801 17.07 17.0764C18.0264 16.1624 18.7879 15.0642 19.3086 13.848C19.8293 12.6319 20.0985 11.323 20.1 10C20.1 7.45395 19.0886 5.01215 17.2882 3.2118C15.4879 1.41145 13.0461 0.400024 10.5 0.400024C7.95395 0.400024 5.51215 1.41145 3.7118 3.2118C1.91145 5.01215 0.900024 7.45395 0.900024 10C0.900024 12.754 2.12402 15.328 3.97562 17.0764C4.03299 17.1305 4.10043 17.1727 4.17411 17.2007C4.24779 17.2287 4.32626 17.2419 4.40504 17.2395C4.48382 17.2372 4.56137 17.2194 4.63326 17.187C4.70515 17.1547 4.76997 17.1086 4.82402 17.0512C4.87808 16.9939 4.9203 16.9264 4.94829 16.8527C4.97627 16.7791 4.98947 16.7006 4.98713 16.6218C4.98479 16.543 4.96696 16.4655 4.93465 16.3936C4.90234 16.3217 4.85619 16.2569 4.79882 16.2028C3.17402 14.668 2.10002 12.4036 2.10002 10H4.50002C4.65915 10 4.81177 9.93681 4.92429 9.82429C5.03681 9.71177 5.10002 9.55915 5.10002 9.40002C5.10002 9.24089 5.03681 9.08828 4.92429 8.97576C4.81177 8.86324 4.65915 8.80002 4.50002 8.80002H2.18402C2.41294 7.2074 3.09623 5.71457 4.15202 4.50042L5.87522 6.22482C5.98789 6.33749 6.14069 6.40078 6.30002 6.40078C6.45935 6.40078 6.61216 6.33749 6.72482 6.22482C6.83749 6.11216 6.90078 5.95935 6.90078 5.80002C6.90078 5.64069 6.83749 5.48789 6.72482 5.37522L4.99922 3.65202ZM14.6388 4.96842C14.7479 4.88182 14.8836 4.83584 15.0229 4.83837C15.1621 4.8409 15.2961 4.89177 15.402 4.98228C15.5078 5.07279 15.5788 5.19729 15.6029 5.33445C15.627 5.4716 15.6027 5.61286 15.534 5.73402L15.402 5.96922C14.9195 6.82135 14.4338 7.67176 13.9452 8.52042C13.5546 9.19955 13.1586 9.87557 12.7572 10.5484C12.6068 10.8016 12.4532 11.0528 12.2964 11.302C12.1764 11.4904 12.0588 11.6692 11.9724 11.77C11.6624 12.1332 11.2209 12.3583 10.7449 12.3959C10.269 12.4334 9.79756 12.2804 9.43442 11.9704C9.07129 11.6604 8.84617 11.2189 8.80859 10.7429C8.771 10.267 8.92404 9.79556 9.23402 9.43242C9.32042 9.33162 9.47762 9.18642 9.64562 9.03882C9.82562 8.87922 10.0572 8.68362 10.3176 8.46402C10.8408 8.02722 11.496 7.49202 12.1344 6.97602C12.8959 6.36006 13.6599 5.74725 14.4264 5.13762L14.6388 4.96962V4.96842Z" fill="#1D2527"/>
</svg>
